<svg width="156" height="20" viewBox="0 0 156 20" fill="none" xmlns="http://www.w3.org/2000/svg">
<g clip-path="url(#clip0_509_10575)">
<path d="M31.3354 13.279H29.048V19.0024H27.0521V13.279H24.7646V11.625H31.3327V13.279H31.3354Z" fill="#231815"/>
<path d="M32.2178 11.6277H36.1236C37.4755 11.6277 38.808 12.2155 38.808 13.7038C38.808 14.5001 38.411 15.2536 37.606 15.5529V15.5742C38.4221 15.7613 38.6581 16.6377 38.7219 17.3404C38.7441 17.6504 38.7747 18.7352 39.044 19.0051H37.0674C36.8953 18.7566 36.8648 18.0352 36.8426 17.8267C36.7898 17.0839 36.6594 16.3171 35.7266 16.3171H34.2137V19.0024H32.2178V11.625V11.6277ZM34.2137 14.8314H35.8876C36.49 14.8314 36.8121 14.5215 36.8121 13.963C36.8121 13.4046 36.3623 13.1668 35.8044 13.1668H34.2165V14.8314H34.2137Z" fill="#231815"/>
<path d="M42.0504 11.625H44.0796L46.9445 19.0024H44.8625L44.3905 17.6798H41.7173L41.2342 19.0024H39.1855L42.0504 11.625ZM42.1781 16.2529H43.9158L43.0692 13.6691H43.047L42.1781 16.2529Z" fill="#231815"/>
<path d="M47.5254 11.625H49.5213V19.0024H47.5254V11.625Z" fill="#231815"/>
<path d="M50.9062 11.625H52.9022V17.3484H56.4777V19.0024H50.9062V11.625Z" fill="#231815"/>
<path d="M60.8467 11.6277H64.7525C66.1044 11.6277 67.4369 12.2155 67.4369 13.7038C67.4369 14.5001 67.0399 15.2536 66.2349 15.5529V15.5742C67.051 15.7613 67.287 16.6377 67.3508 17.3404C67.373 17.6504 67.4036 18.7352 67.6729 19.0051H65.6963C65.5242 18.7566 65.4937 18.0352 65.4715 17.8267C65.4187 17.0839 65.2883 16.3171 64.3555 16.3171H62.8426V19.0024H60.8467V11.625V11.6277ZM62.8426 14.8314H64.5165C65.1189 14.8314 65.441 14.5215 65.441 13.963C65.441 13.4046 64.9912 13.1668 64.4333 13.1668H62.8454V14.8314H62.8426Z" fill="#231815"/>
<path d="M75.2183 15.9537C75.2183 18.0913 74.1995 19.1574 71.8815 19.1574C69.5636 19.1574 68.542 18.0939 68.542 15.9537V11.625H70.5379V16.0686C70.5379 17.0198 70.9044 17.5061 71.8787 17.5061C72.8531 17.5061 73.2196 17.0198 73.2196 16.0686V11.625H75.2155V15.9537H75.2183Z" fill="#231815"/>
<path d="M76.5291 11.625H78.5778L81.24 16.1701H81.2622V11.625H83.1416V19.0024H81.0901L78.4279 14.4039H78.4057V19.0024H76.5264V11.625H76.5291Z" fill="#231815"/>
<path d="M84.4852 11.625H86.5339L89.1961 16.1701H89.2183V11.625H91.0976V19.0024H89.0462L86.384 14.4039H86.3618V19.0024H84.4824V11.625H84.4852Z" fill="#231815"/>
<path d="M92.46 11.625H98.5672V13.1641H94.4559V14.4547H98.2118V15.943H94.4559V17.3484H98.6754V19.0024H92.46V11.625Z" fill="#231815"/>
<path d="M99.8135 11.6277H103.719C105.071 11.6277 106.404 12.2155 106.404 13.7038C106.404 14.5001 106.007 15.2536 105.202 15.5529V15.5742C106.018 15.7613 106.254 16.6377 106.318 17.3404C106.34 17.6504 106.37 18.7352 106.64 19.0051H104.663C104.491 18.7566 104.46 18.0352 104.438 17.8267C104.386 17.0839 104.255 16.3171 103.322 16.3171H101.809V19.0024H99.8135V11.625V11.6277ZM101.809 14.8314H103.483C104.086 14.8314 104.408 14.5215 104.408 13.963C104.408 13.4046 103.958 13.1668 103.4 13.1668H101.812V14.8314H101.809Z" fill="#231815"/>
<path d="M109.119 16.5228C109.16 17.3912 109.721 17.669 110.568 17.669C111.17 17.669 111.792 17.4633 111.792 16.9155C111.792 16.2636 110.698 16.1407 109.591 15.8414C108.497 15.5421 107.348 15.0665 107.348 13.7145C107.348 12.1033 109.033 11.4727 110.471 11.4727C111.995 11.4727 113.53 12.1861 113.541 13.8481H111.545C111.578 13.1774 110.923 12.9583 110.31 12.9583C109.879 12.9583 109.344 13.1026 109.344 13.5889C109.344 14.158 110.449 14.2596 111.564 14.5588C112.669 14.8581 113.785 15.3551 113.785 16.6884C113.785 18.5588 112.134 19.1574 110.449 19.1574C108.764 19.1574 107.131 18.4145 107.12 16.5228H109.116H109.119Z" fill="#231815"/>
<path d="M123.194 14.2608C123.085 13.518 122.486 13.1252 121.647 13.1252C120.359 13.1252 119.865 14.2207 119.865 15.3162C119.865 16.4118 120.359 17.5073 121.647 17.5073C122.58 17.5073 123.119 16.9916 123.194 16.1446H125.189C125.081 18.047 123.632 19.1613 121.689 19.1613C119.371 19.1613 117.869 17.4565 117.869 15.3189C117.869 13.1813 119.371 11.4766 121.689 11.4766C123.343 11.4766 125.134 12.4893 125.189 14.2661H123.194V14.2608Z" fill="#231815"/>
<path d="M126.252 11.625H128.248V17.3484H131.823V19.0024H126.252V11.625Z" fill="#231815"/>
<path d="M139.433 15.9537C139.433 18.0913 138.414 19.1574 136.096 19.1574C133.778 19.1574 132.757 18.0939 132.757 15.9537V11.625H134.753V16.0686C134.753 17.0198 135.119 17.5061 136.094 17.5061C137.068 17.5061 137.434 17.0198 137.434 16.0686V11.625H139.43V15.9537H139.433Z" fill="#231815"/>
<path d="M140.766 11.6277H144.349C145.671 11.6063 147.12 11.9376 147.12 13.4767C147.12 14.1367 146.712 14.6764 146.112 14.965C146.928 15.1921 147.434 15.8735 147.434 16.7098C147.434 18.4653 146.093 19.0024 144.449 19.0024H140.768V11.625L140.766 11.6277ZM142.762 14.5321H144.308C144.652 14.5321 145.124 14.3558 145.124 13.8294C145.124 13.303 144.727 13.116 144.308 13.116H142.762V14.5321ZM142.762 17.466H144.361C144.993 17.466 145.435 17.2496 145.435 16.6404C145.435 15.9884 144.963 15.772 144.361 15.772H142.762V17.466Z" fill="#231815"/>
<path d="M25.2646 0.15625H29.1927C30.5529 0.15625 31.891 0.749436 31.891 2.24309C31.891 3.04202 31.4912 3.80087 30.6834 4.10281V4.12419C31.5051 4.31123 31.7411 5.19299 31.8049 5.90107C31.8271 6.2137 31.8576 7.30388 32.1297 7.57375H30.1449C29.9727 7.32525 29.9394 6.59847 29.9172 6.39005C29.8645 5.64189 29.734 4.87235 28.7957 4.87235H27.2745V7.57375H25.2674V0.15625H25.2646ZM27.2717 3.3787H28.9567C29.5619 3.3787 29.8839 3.06607 29.8839 2.50495C29.8839 1.94383 29.4314 1.70602 28.8679 1.70602H27.2717V3.3787Z" fill="#231815"/>
<path d="M36.3521 0C38.7811 0 40.1524 1.71543 40.1524 3.86373C40.1524 6.01202 38.7811 7.72745 36.3521 7.72745C33.9231 7.72745 32.5518 6.01202 32.5518 3.86373C32.5518 1.71543 33.9231 0 36.3521 0ZM36.3521 6.06814C37.6485 6.06814 38.1426 4.96727 38.1426 3.8664C38.1426 2.76553 37.6457 1.66466 36.3521 1.66466C35.0585 1.66466 34.5616 2.76553 34.5616 3.8664C34.5616 4.96727 35.0585 6.06814 36.3521 6.06814Z" fill="#231815"/>
<path d="M46.1402 2.80561C46.032 2.05745 45.4268 1.66199 44.5857 1.66199C43.2893 1.66199 42.7951 2.76286 42.7951 3.86373C42.7951 4.9646 43.292 6.06546 44.5857 6.06546C45.5239 6.06546 46.0653 5.54709 46.1402 4.69472H48.1473C48.039 6.60521 46.5816 7.72745 44.6301 7.72745C42.2982 7.72745 40.7881 6.01202 40.7881 3.86373C40.7881 1.71543 42.2982 0 44.6301 0C46.2929 0 48.0945 1.01804 48.1473 2.80561H46.1402Z" fill="#231815"/>
<path d="M49.002 0.15625H51.009V3.00194L53.5463 0.15625H56.0391L53.1909 3.07409L56.3972 7.57108H53.9044L51.8335 4.45552L51.0118 5.28651V7.57108H49.0047V0.15625H49.002Z" fill="#231815"/>
<path d="M63.3486 6.94867C62.6796 7.47772 61.9995 7.72889 61.1362 7.72889C59.7648 7.72889 58.5684 6.84713 58.5684 5.46303C58.5684 4.40224 59.3873 3.7182 60.3172 3.30137C59.9397 2.89523 59.6371 2.43831 59.6371 1.87719C59.6371 0.722881 60.7281 -0.00390625 61.8385 -0.00390625C62.9489 -0.00390625 64.0176 0.733569 64.0176 1.91727C64.0176 2.78033 63.468 3.38153 62.7018 3.75561L63.5013 4.68013C63.6512 4.46102 63.7484 4.21253 63.7817 3.95334H65.3585C65.2946 4.61867 64.9809 5.27331 64.5062 5.76229L66.1246 7.56857H63.8899L63.3514 6.94599L63.3486 6.94867ZM61.2333 4.46637C60.8558 4.63203 60.3367 4.99543 60.3367 5.44432C60.3367 5.96269 60.8558 6.29669 61.3499 6.29669C61.6941 6.29669 62.0828 6.02682 62.3743 5.76764L61.2305 4.46904L61.2333 4.46637ZM62.5158 1.81573C62.5158 1.46303 62.2466 1.24392 61.869 1.24392C61.5331 1.24392 61.2639 1.48173 61.2639 1.79436C61.2639 2.2005 61.5664 2.43831 61.8024 2.72956C62.1799 2.51046 62.5158 2.26196 62.5158 1.81573Z" fill="#231815"/>
<path d="M68.1426 0.15625H72.0706C73.4309 0.15625 74.7689 0.749436 74.7689 2.24309C74.7689 3.04202 74.3691 3.80087 73.5613 4.10281V4.12419C74.383 4.31123 74.619 5.19299 74.6828 5.90107C74.705 6.2137 74.7356 7.30388 75.0076 7.57375H73.0228C72.8507 7.32525 72.8174 6.59847 72.7952 6.39005C72.7424 5.64189 72.6119 4.87235 71.6736 4.87235H70.1524V7.57375H68.1454V0.15625H68.1426ZM70.1496 3.3787H71.8347C72.4398 3.3787 72.7618 3.06607 72.7618 2.50495C72.7618 1.94383 72.3094 1.70602 71.7458 1.70602H70.1496V3.3787Z" fill="#231815"/>
<path d="M82.3774 4.50896C82.3774 6.65992 81.3531 7.72873 79.0212 7.72873C76.6894 7.72873 75.665 6.65992 75.665 4.50896V0.15625H77.6721V4.62385C77.6721 5.58043 78.0385 6.06674 79.0212 6.06674C80.0039 6.06674 80.3704 5.57776 80.3704 4.62385V0.15625H82.3774V4.50896Z" fill="#231815"/>
<path d="M83.4795 0.15625H85.5421L88.2181 4.72806H88.2403V0.15625H90.128V7.57375H88.0654L85.3894 2.95117H85.3672V7.57375H83.4795V0.15625Z" fill="#231815"/>
<path d="M150.606 13.2734H152.558C153.233 13.2734 153.899 13.5674 153.899 14.3102C153.899 14.7083 153.702 15.0851 153.299 15.2347V15.2454C153.707 15.3389 153.824 15.7771 153.857 16.1271C153.868 16.2821 153.885 16.8245 154.018 16.9581H153.033C152.947 16.8352 152.93 16.4718 152.919 16.3703C152.891 15.9989 152.827 15.6168 152.361 15.6168H151.606V16.9581H150.609V13.2734H150.606ZM151.603 14.874H152.439C152.738 14.874 152.899 14.719 152.899 14.4411C152.899 14.1632 152.675 14.043 152.394 14.043H151.6V14.874H151.603Z" fill="#231815"/>
<path d="M152.286 18.7831C150.237 18.7831 148.571 17.1799 148.571 15.208C148.571 13.236 150.237 11.6328 152.286 11.6328C154.334 11.6328 156 13.236 156 15.208C156 17.1799 154.334 18.7831 152.286 18.7831ZM152.286 12.4184C150.687 12.4184 149.387 13.6689 149.387 15.208C149.387 16.747 150.687 17.9975 152.286 17.9975C153.885 17.9975 155.184 16.747 155.184 15.208C155.184 13.6689 153.885 12.4184 152.286 12.4184Z" fill="#231815"/>
<path d="M15.9814 1.17969H0V20.0013H6.65962H7.54794V14.5691C9.71322 14.2939 11.662 14.7802 13.3886 16.0628C14.4019 16.8136 14.9848 17.6286 15.4345 18.7775C15.5817 19.1516 15.7788 19.5711 15.7677 19.9666C15.7704 19.9666 15.7732 19.9666 15.776 19.9666V19.9987H16.2202V1.17969H15.9786H15.9814ZM11.4815 13.7542C10.4905 14.1122 9.62716 14.1416 8.60559 14.1309C8.2808 14.1283 7.84775 14.1844 7.54794 14.0828V1.55377C8.31967 1.59385 9.18578 1.47094 9.9353 1.54842C16.4728 2.21108 17.7886 11.4803 11.4815 13.7542Z" fill="black"/>
</g>
<defs>
<clipPath id="clip0_509_10575">
<rect width="156" height="20" fill="white"/>
</clipPath>
</defs>
</svg>
