<svg width="28" height="12" viewBox="0 0 28 12" fill="none" xmlns="http://www.w3.org/2000/svg">
<path d="M0.916016 11V1.10156H7.12305V2.40039H2.41992V5.39453H6.79492V6.67969H2.41992V9.70117H7.17773V11H0.916016ZM16.9531 1.10156V11H15.5723L10.5547 3.76758H10.4727V11H8.96875V1.10156H10.3633L15.3809 8.34766H15.4766V1.10156H16.9531ZM25.6621 4.23242C25.293 3.05664 24.4043 2.3457 23.0918 2.3457C21.4238 2.3457 20.1387 3.6582 20.1387 6.05078C20.1387 8.44336 21.4102 9.75586 23.1602 9.75586C24.7393 9.75586 25.7852 8.75781 25.8125 7.17188H23.3789V5.92773H27.2754V7.04883C27.2754 9.55078 25.5527 11.1367 23.1465 11.1367C20.4668 11.1367 18.6484 9.18164 18.6484 6.05078C18.6484 2.89258 20.5215 0.964844 23.0781 0.964844C25.2246 0.964844 26.8652 2.30469 27.207 4.23242H25.6621Z" fill="white"/>
</svg>
