<svg width="28" height="28" viewBox="0 0 28 28" fill="none" xmlns="http://www.w3.org/2000/svg">
<path d="M3.5 12.8333C3.5 8.43383 3.5 6.2335 4.86733 4.86733C6.23467 3.50117 8.43383 3.5 12.8333 3.5H15.1667C19.5662 3.5 21.7665 3.5 23.1327 4.86733C24.4988 6.23467 24.5 8.43383 24.5 12.8333V15.1667C24.5 19.5662 24.5 21.7665 23.1327 23.1327C21.7653 24.4988 19.5662 24.5 15.1667 24.5H12.8333C8.43383 24.5 6.2335 24.5 4.86733 23.1327C3.50117 21.7653 3.5 19.5662 3.5 15.1667V12.8333Z" stroke="black" stroke-width="2.33333"/>
<path d="M19.25 10.5C20.2165 10.5 21 9.7165 21 8.75C21 7.7835 20.2165 7 19.25 7C18.2835 7 17.5 7.7835 17.5 8.75C17.5 9.7165 18.2835 10.5 19.25 10.5Z" fill="black"/>
<path d="M14 17.5C15.933 17.5 17.5 15.933 17.5 14C17.5 12.067 15.933 10.5 14 10.5C12.067 10.5 10.5 12.067 10.5 14C10.5 15.933 12.067 17.5 14 17.5Z" stroke="black" stroke-width="2.33333"/>
</svg>
