<svg width="25" height="24" viewBox="0 0 25 24" fill="none" xmlns="http://www.w3.org/2000/svg">
<g clip-path="url(#clip0_471_7923)">
<path d="M9.61887 2.62535C7.72048 3.28392 6.08331 4.53391 4.94783 6.19172C3.81235 7.84952 3.23842 9.82775 3.31034 11.8358C3.38226 13.8439 4.09624 15.7761 5.3474 17.3484C6.59856 18.9207 8.32096 20.0504 10.2616 20.5714C11.8349 20.9774 13.4833 20.9952 15.065 20.6234C16.4979 20.3015 17.8227 19.6131 18.9096 18.6254C20.0408 17.5661 20.8619 16.2185 21.2846 14.7275C21.744 13.106 21.8258 11.4009 21.5236 9.74293H12.6886V13.4079H17.8052C17.7029 13.9924 17.4838 14.5503 17.1609 15.0481C16.838 15.546 16.418 15.9736 15.926 16.3054C15.3012 16.7186 14.5969 16.9967 13.8582 17.1218C13.1175 17.2595 12.3576 17.2595 11.6168 17.1218C10.866 16.9665 10.1558 16.6566 9.53129 16.2118C8.52808 15.5017 7.7748 14.4928 7.37895 13.3292C6.97641 12.1438 6.97641 10.8586 7.37895 9.67317C7.66072 8.84224 8.12653 8.08568 8.74161 7.45996C9.44549 6.73076 10.3366 6.20952 11.3172 5.95344C12.2978 5.69735 13.33 5.71631 14.3006 6.00824C15.0588 6.24098 15.7521 6.64762 16.3253 7.19574C16.9022 6.62179 17.4781 6.04634 18.0531 5.46942C18.35 5.15918 18.6736 4.86379 18.966 4.54614C18.091 3.73192 17.064 3.09836 15.9438 2.68176C13.9038 1.94104 11.6717 1.92114 9.61887 2.62535Z" fill="white"/>
<path d="M9.61881 2.62412C11.6715 1.91943 13.9036 1.93881 15.9437 2.67904C17.0642 3.09847 18.0907 3.73508 18.9644 4.55233C18.6676 4.86998 18.3544 5.16686 18.0515 5.47561C17.4756 6.05055 16.9002 6.62352 16.3252 7.19451C15.752 6.64639 15.0587 6.23975 14.3005 6.00701C13.3303 5.71406 12.2981 5.694 11.3173 5.94904C10.3364 6.20407 9.44471 6.72435 8.74006 7.45279C8.12498 8.07851 7.65918 8.83507 7.3774 9.666L4.30029 7.28357C5.40171 5.09941 7.30875 3.42869 9.61881 2.62412Z" fill="#E33629"/>
<path d="M3.48386 9.64531C3.64925 8.82563 3.92384 8.03184 4.30027 7.28516L7.37738 9.67352C6.97484 10.8589 6.97484 12.1441 7.37738 13.3295C6.35217 14.1212 5.32647 14.9168 4.30027 15.7164C3.35791 13.8406 3.07051 11.7034 3.48386 9.64531Z" fill="#F8BD00"/>
<path d="M12.6885 9.74023H21.5235C21.8257 11.3982 21.744 13.1033 21.2845 14.7248C20.8618 16.2158 20.0408 17.5634 18.9095 18.6227C17.9165 17.8479 16.919 17.079 15.9259 16.3041C16.4183 15.9721 16.8385 15.544 17.1614 15.0456C17.4843 14.5472 17.7033 13.9887 17.8052 13.4037H12.6885C12.687 12.1835 12.6885 10.9619 12.6885 9.74023Z" fill="#587DBD"/>
<path d="M4.29883 15.715C5.32503 14.9233 6.35073 14.1277 7.37594 13.3281C7.77257 14.4922 8.52693 15.5011 9.53125 16.2108C10.1577 16.6535 10.8695 16.9609 11.6213 17.1133C12.362 17.251 13.1219 17.251 13.8627 17.1133C14.6013 16.9883 15.3056 16.7102 15.9304 16.2969C16.9234 17.0717 17.9209 17.8406 18.914 18.6155C17.8273 19.6037 16.5025 20.2926 15.0695 20.6149C13.4877 20.9868 11.8393 20.9689 10.266 20.563C9.02167 20.2307 7.85936 19.645 6.85195 18.8426C5.78567 17.996 4.91478 16.9292 4.29883 15.715Z" fill="#319F43"/>
</g>
<defs>
<clipPath id="clip0_471_7923">
<rect width="19" height="19" fill="white" transform="translate(3 2)"/>
</clipPath>
</defs>
</svg>
