<svg width="16" height="16" viewBox="0 0 16 16" fill="none" xmlns="http://www.w3.org/2000/svg">
<path d="M8.66681 1.33399C9.16066 1.33318 9.63735 1.51512 10.0051 1.84476C10.3728 2.17441 10.6056 2.62845 10.6585 3.11945C10.7115 3.61045 10.581 4.10369 10.292 4.50419C10.003 4.90468 9.57614 5.18411 9.09348 5.28865L8.97948 5.30999L9.93681 6.84132L11.0861 6.38132C11.2442 6.3175 11.4208 6.31667 11.5794 6.379C11.7381 6.44132 11.8669 6.56207 11.9393 6.71642C12.0117 6.87077 12.0222 7.04698 11.9687 7.20884C11.9151 7.3707 11.8016 7.5059 11.6515 7.58665L11.5808 7.61999L10.4321 8.07932C10.1599 8.18826 9.85925 8.20439 9.57687 8.1252C9.29449 8.04602 9.04609 7.87595 8.87014 7.64132L8.80614 7.54799L8.69748 7.37465L8.29348 8.99065C8.25852 9.13127 8.20088 9.26525 8.12281 9.38732L8.06281 9.47399L9.16481 10.2927C9.42767 10.488 9.60944 10.7732 9.67548 11.094L9.69481 11.2153L9.93014 13.334H10.0001C10.1701 13.3342 10.3335 13.3992 10.4571 13.5159C10.5806 13.6325 10.655 13.792 10.6649 13.9616C10.6749 14.1312 10.6197 14.2982 10.5106 14.4285C10.4016 14.5588 10.2469 14.6426 10.0781 14.6627L10.0001 14.6673H9.39348C9.22664 14.6674 9.06477 14.6105 8.9346 14.5062C8.80443 14.4018 8.71373 14.2562 8.67748 14.0933L8.66414 14.0153L8.36948 11.3627L6.26948 9.80265C6.2321 9.7752 6.19769 9.74392 6.16681 9.70932C5.98157 9.56108 5.83925 9.36609 5.75452 9.14448C5.66979 8.92287 5.64573 8.68267 5.68481 8.44865L5.70681 8.34399L6.23614 6.22599L5.18948 6.53932L4.63281 8.21132C4.57935 8.3731 4.46597 8.50826 4.31597 8.58906C4.16596 8.66986 3.99072 8.69016 3.82621 8.64579C3.66171 8.60142 3.52044 8.49576 3.43141 8.35049C3.34238 8.20522 3.31234 8.03137 3.34748 7.86465L3.36748 7.78999L3.92481 6.11799C3.98673 5.93246 4.0887 5.76283 4.22349 5.62112C4.35829 5.47941 4.52261 5.36909 4.70481 5.29799L4.80681 5.26265L7.09814 4.57532C6.86483 4.28059 6.71931 3.92607 6.67826 3.55241C6.6372 3.17876 6.70228 2.8011 6.86604 2.46274C7.02979 2.12438 7.28558 1.83902 7.60409 1.63937C7.92259 1.43973 8.29091 1.33389 8.66681 1.33399ZM6.40014 10.134C6.54159 10.2401 6.63511 10.398 6.66011 10.573C6.68512 10.7481 6.63956 10.9259 6.53348 11.0673L5.72281 12.1487C5.56944 12.3531 5.34359 12.4911 5.09165 12.5343C4.83971 12.5774 4.58082 12.5224 4.36814 12.3807L3.08148 11.5227C2.9483 11.6295 2.77919 11.6812 2.60902 11.6671C2.43884 11.6529 2.28059 11.574 2.16687 11.4467C2.05316 11.3193 1.99267 11.1531 1.99787 10.9824C2.00307 10.8117 2.07356 10.6496 2.19481 10.5293L2.52481 10.2C2.63484 10.0897 2.77968 10.021 2.93467 10.0056C3.08965 9.99017 3.2452 10.0289 3.37481 10.1153L4.84548 11.096L5.46681 10.2673C5.51934 10.1973 5.58515 10.1383 5.66048 10.0937C5.73581 10.0491 5.8192 10.0197 5.90586 10.0074C5.99253 9.99497 6.08079 9.99978 6.1656 10.0215C6.25041 10.0432 6.33011 10.0815 6.40014 10.134Z" fill="black"/>
</svg>
