<svg width="24" height="24" viewBox="0 0 24 24" fill="none" xmlns="http://www.w3.org/2000/svg">
<circle cx="12" cy="12" r="12" fill="black"/>
<path d="M6 11.3333C6 8.81933 6 7.562 6.78133 6.78133C7.56267 6.00067 8.81933 6 11.3333 6H12.6667C15.1807 6 16.438 6 17.2187 6.78133C17.9993 7.56267 18 8.81933 18 11.3333V12.6667C18 15.1807 18 16.438 17.2187 17.2187C16.4373 17.9993 15.1807 18 12.6667 18H11.3333C8.81933 18 7.562 18 6.78133 17.2187C6.00067 16.4373 6 15.1807 6 12.6667V11.3333Z" stroke="white"/>
<path d="M15 10C15.5523 10 16 9.55228 16 9C16 8.44772 15.5523 8 15 8C14.4477 8 14 8.44772 14 9C14 9.55228 14.4477 10 15 10Z" fill="white"/>
<path d="M12 14C13.1046 14 14 13.1046 14 12C14 10.8954 13.1046 10 12 10C10.8954 10 10 10.8954 10 12C10 13.1046 10.8954 14 12 14Z" stroke="white"/>
</svg>
