<svg width="16" height="16" viewBox="0 0 16 16" fill="none" xmlns="http://www.w3.org/2000/svg">
<path d="M2 4V4.84375C2 7.17813 3.29366 9.22 5.21951 10.3563V13H14V11.875C14 10.3787 10.88 9.625 9.31707 9.625H9.17073C6.39024 9.625 4.04878 7.375 4.04878 4.84375V4M9.31707 4C8.69608 4 8.10052 4.23705 7.66141 4.65901C7.2223 5.08097 6.97561 5.65326 6.97561 6.25C6.97561 6.84674 7.2223 7.41903 7.66141 7.84099C8.10052 8.26295 8.69608 8.5 9.31707 8.5C9.93807 8.5 10.5336 8.26295 10.9727 7.84099C11.4118 7.41903 11.6585 6.84674 11.6585 6.25C11.6585 5.65326 11.4118 5.08097 10.9727 4.65901C10.5336 4.23705 9.93807 4 9.31707 4Z" fill="black"/>
</svg>
