<svg width="24" height="24" viewBox="0 0 24 24" fill="none" xmlns="http://www.w3.org/2000/svg">
<path d="M6.93105 9.15735L11.6161 13.7684C11.7183 13.8695 11.8563 13.9262 12.0001 13.9262C12.1438 13.9262 12.2818 13.8695 12.3841 13.7684L17.0691 9.15835C17.1719 9.05728 17.3103 9.00064 17.4546 9.00064C17.5988 9.00064 17.7372 9.05728 17.8401 9.15835C17.8907 9.20773 17.931 9.26675 17.9584 9.33192C17.9859 9.3971 18.0001 9.46712 18.0001 9.53786C18.0001 9.60859 17.9859 9.67861 17.9584 9.74378C17.931 9.80896 17.8907 9.86798 17.8401 9.91735L13.1561 14.5274C12.8475 14.8303 12.4324 15 12.0001 15C11.5677 15 11.1526 14.8303 10.8441 14.5274L6.16005 9.91735C6.10925 9.86796 6.06887 9.80888 6.04129 9.74362C6.01372 9.67835 5.99951 9.60821 5.99951 9.53735C5.99951 9.4665 6.01372 9.39636 6.04129 9.33109C6.06887 9.26583 6.10925 9.20675 6.16005 9.15735C6.26291 9.05628 6.40135 8.99964 6.54555 8.99964C6.68976 8.99964 6.8282 9.05628 6.93105 9.15735Z" fill="#B3B3B3"/>
</svg>
