<svg width="20" height="20" viewBox="0 0 20 20" fill="none" xmlns="http://www.w3.org/2000/svg">
<path d="M15.8334 3.33317H14.1667V2.49984C14.1667 2.27882 14.079 2.06686 13.9227 1.91058C13.7664 1.7543 13.5544 1.6665 13.3334 1.6665C13.1124 1.6665 12.9004 1.7543 12.7442 1.91058C12.5879 2.06686 12.5001 2.27882 12.5001 2.49984V3.33317H7.50008V2.49984C7.50008 2.27882 7.41228 2.06686 7.256 1.91058C7.09972 1.7543 6.88776 1.6665 6.66675 1.6665C6.44573 1.6665 6.23377 1.7543 6.07749 1.91058C5.92121 2.06686 5.83341 2.27882 5.83341 2.49984V3.33317H4.16675C3.50371 3.33317 2.86782 3.59656 2.39898 4.0654C1.93014 4.53424 1.66675 5.17013 1.66675 5.83317V15.8332C1.66675 16.4962 1.93014 17.1321 2.39898 17.6009C2.86782 18.0698 3.50371 18.3332 4.16675 18.3332H15.8334C16.4965 18.3332 17.1323 18.0698 17.6012 17.6009C18.07 17.1321 18.3334 16.4962 18.3334 15.8332V5.83317C18.3334 5.17013 18.07 4.53424 17.6012 4.0654C17.1323 3.59656 16.4965 3.33317 15.8334 3.33317ZM16.6667 15.8332C16.6667 16.0542 16.579 16.2661 16.4227 16.4224C16.2664 16.5787 16.0544 16.6665 15.8334 16.6665H4.16675C3.94573 16.6665 3.73377 16.5787 3.57749 16.4224C3.42121 16.2661 3.33341 16.0542 3.33341 15.8332V9.99984H16.6667V15.8332ZM16.6667 8.33317H3.33341V5.83317C3.33341 5.61216 3.42121 5.4002 3.57749 5.24392C3.73377 5.08763 3.94573 4.99984 4.16675 4.99984H5.83341V5.83317C5.83341 6.05418 5.92121 6.26615 6.07749 6.42243C6.23377 6.57871 6.44573 6.6665 6.66675 6.6665C6.88776 6.6665 7.09972 6.57871 7.256 6.42243C7.41228 6.26615 7.50008 6.05418 7.50008 5.83317V4.99984H12.5001V5.83317C12.5001 6.05418 12.5879 6.26615 12.7442 6.42243C12.9004 6.57871 13.1124 6.6665 13.3334 6.6665C13.5544 6.6665 13.7664 6.57871 13.9227 6.42243C14.079 6.26615 14.1667 6.05418 14.1667 5.83317V4.99984H15.8334C16.0544 4.99984 16.2664 5.08763 16.4227 5.24392C16.579 5.4002 16.6667 5.61216 16.6667 5.83317V8.33317Z" fill="#AAAAAA"/>
</svg>
