<svg width="12" height="12" viewBox="0 0 12 12" fill="none" xmlns="http://www.w3.org/2000/svg">
<path d="M2.00026 4.42578C2.00078 4.36584 2.01459 4.30677 2.0407 4.25281C2.06681 4.19886 2.10457 4.15137 2.15126 4.11378C2.24753 4.03605 2.36848 3.99542 2.49216 3.99927C2.61583 4.00313 2.73402 4.05121 2.82526 4.13478L5.78626 6.97178L9.20026 4.11478C9.29627 4.03791 9.4165 3.99772 9.53944 4.00138C9.66238 4.00504 9.78 4.05233 9.87126 4.13478C9.91249 4.17386 9.94492 4.22127 9.9664 4.27385C9.98787 4.32643 9.99791 4.38299 9.99583 4.43975C9.99374 4.49652 9.9796 4.55219 9.95433 4.60306C9.92905 4.65393 9.89324 4.69883 9.84926 4.73478L6.09026 7.88478C5.99408 7.96351 5.87247 8.0044 5.74826 7.99978C5.62472 7.99735 5.50644 7.94926 5.41626 7.86478L2.12826 4.71578C2.08829 4.67872 2.05632 4.63387 2.03431 4.584C2.0123 4.53413 2.00071 4.48029 2.00026 4.42578Z" fill="black"/>
</svg>
