<svg width="27" height="12" viewBox="0 0 27 12" fill="none" xmlns="http://www.w3.org/2000/svg">
<path d="M0.695312 11V1.10156H2.19922V5.81836H2.32227L6.46484 1.10156H8.35156L4.35938 5.55859L8.36523 11H6.54688L3.36133 6.58398L2.19922 7.92383V11H0.695312ZM17.6895 6.05078C17.6895 9.20898 15.7891 11.1367 13.2324 11.1367C10.6484 11.1367 8.76172 9.20898 8.76172 6.05078C8.76172 2.87891 10.6484 0.964844 13.2324 0.964844C15.7891 0.964844 17.6895 2.87891 17.6895 6.05078ZM16.1992 6.05078C16.1992 3.64453 14.9277 2.3457 13.2324 2.3457C11.5234 2.3457 10.252 3.64453 10.252 6.05078C10.252 8.45703 11.5234 9.75586 13.2324 9.75586C14.9277 9.75586 16.1992 8.45703 16.1992 6.05078ZM19.3848 11V1.10156H22.9121C25.209 1.10156 26.3438 2.38672 26.3438 4.20508C26.3438 5.53809 25.7422 6.5498 24.5391 6.99414L26.7266 11H25.0176L23.0078 7.26758H22.9121H20.8887V11H19.3848ZM20.8887 5.96875H22.7617C24.2246 5.96875 24.8262 5.32617 24.8262 4.20508C24.8262 3.08398 24.2246 2.38672 22.7617 2.38672H20.8887V5.96875Z" fill="white"/>
</svg>
